<?xml version="1.0" encoding="UTF-8"?>
<svg xmlns="http://www.w3.org/2000/svg" version="1.1" viewBox="0 0 480 480">
  <!-- Generator: Adobe Illustrator 29.7.1, SVG Export Plug-In . SVG Version: 2.1.1 Build 8)  -->
  <defs>
    <style>
      .st0 {
        fill: #0974cc;
      }

      .st1 {
        fill: #fff;
      }
    </style>
  </defs>
  <g id="Ebene_1">
    <circle class="st0" cx="240" cy="240" r="235.68"/>
  </g>
  <g id="Ebene_2">
    <g>
      <path class="st1" d="M311.28,127.09v29.07l-.35.35h-53.79v108.88l.35.35h39.43v28.6l-.35.35h-67.57l-13.3-28.96h8.71c-.08-.23.24-.51.24-.59v-108.29l-.35-.35h-53.79c.08-.23-.24-.51-.24-.59v-28.49c0-.09.31-.36.24-.59.24-.08.5.24.59.24h53.21l.35-.35v-56.85c.43-.11.83-.21,1.29-.24,9.69-.76,20.36.6,30.16,0,.3-.09,1.05.41,1.05.6v56.5l.35.35h53.79,0Z"/>
      <path class="st1" d="M184.39,199.6l58.41,131.34.68.02,15.19-34.61h7.65l-32.95,77.05c-.63.79-6.49.32-7.78.29l-64.74-146.79v36.61l-.35.35h-10.36l-.35-.35v-46.61c-3.88-3.74-7.75-7.56-12.24-10.59v-6.71h46.85Z"/>
      <path class="st1" d="M344.24,199.6v6.47c-1.37.6-2.8.73-4.16,1.49-2.89,1.6-5.52,6.27-6.7,9.3-1.4,3.57-1.5,9.5-1.62,13.45-1.21,39.56.93,79.32.01,118.9.43,3.6.72,7.32,2.77,10.42,4.78,7.22,15.62,6.18,23.13,7.48l.2.25c-.14.8-.21,1.75-.21,2.56,0,.71.25,2.96.19,3.28-.03.16-.47.62-.53.62h-84.63v-6.83c9.31-.48,23.41-.52,25.36-12.19.65-3.88.34-7.82.78-11.7v-120.66s-18.49,41.43-18.49,41.43h-7.3l27.78-64.27h43.44Z"/>
      <path class="st1" d="M114,265.75h62.03l12.56,28.42c.1.19-.24.54-.32.54h-73.92l-.35-.35v-28.6Z"/>
      <path class="st1" d="M160.61,296.36c.11.43.21.83.24,1.29,1.39,17.64-4.27,42.73,7.53,57.45,5.42,6.77,14.13,10.01,22.36,11.89v6.59h-66.86v-6.24c0-.09.46-.49.64-.54,8.18-.68,17.67-4.55,22.29-11.61,2.58-3.92,3.07-9.37,3.21-13.98.44-14.05-1.36-29.64-.26-43.57.04-.45.14-.85.24-1.29h10.6Z"/>
      <path class="st1" d="M333.41,266.11l34.15-.49c.24.18.21.45.24.72.5,4.17-.57,9.18.2,13.41l-.08,14.4c-.03.17-.44.58-.49.58h-33.43s-.59-.55-.59-.59v-28.02h0Z"/>
    </g>
  </g>
</svg>